# xmcd
#
# Track frame offsets: 
#        150
#        16800
#        35245
#        52477
#        73817
#        92232
#        108730
#        131275
#        154885
#        171767
#        188360
#        201642
#        223712
#        241737
#        258287
#        274090
#
# Disc length: 3914 seconds
#
# Revision: 0
# Processed by: cddbd v1.5.2PL0 Copyright (c) Steve Scherf et al.
# Submitted via: ExactAudioCopy v0.95b3
#
DISCID=f10f4810
DTITLE=Al Basile - Shaking The Soul Tree
DYEAR=2001
DGENRE=Blues
TTITLE0=Leave A Good Thing Alone
TTITLE1=Look Into It
TTITLE2=Rueful Rules
TTITLE3=35 Women
TTITLE4=Breaking The Ice
TTITLE5=After The Fall
TTITLE6=Drive Me Darling
TTITLE7=Lorelei
TTITLE8=I Picker Her Up
TTITLE9=You Scare Me
TTITLE10=One Step Closer
TTITLE11=You Know
TTITLE12=Brand New Fool
TTITLE13=Bad Intentions
TTITLE14=Sleeping Beauty
TTITLE15=Ain't That A Man
EXTD=
EXTT0=
EXTT1=
EXTT2=
EXTT3=
EXTT4=
EXTT5=
EXTT6=
EXTT7=
EXTT8=
EXTT9=
EXTT10=
EXTT11=
EXTT12=
EXTT13=
EXTT14=
EXTT15=
PLAYORDER=
